- 
http://www.Speed.Cd      fast  and The Hottest Private Tracker on the net

   signup is open now

Please Seed back to make the speed Faster!!!

------------------nfo--------------------------
-








































          
          
              
              
                    
                    
                    
                    

Perfume.The.Story.Of.A.Murderer.2006.BRRip.XviD.AC3-SiC

Poster:
[img]http://img843.imageshack.us/img843/1272/mv5bmti0njuymtk3nl5bml5.jpg[/img]

IMDB Link:
http://www.imdb.com/title/tt0396171/

Description:
Jean-Baptiste Grenouille, born with a superior olfactory sense, creates the world's finest perfume. His work, however, takes a dark turn as he searches for the ultimate scent. 

MediaInfo:
General
Complete name                    : Perfume.The.Story.Of.A.Murderer.2006.BRRip.XviD.AC3-SiC.avi
Format                           : AVI
Format/Info                      : Audio Video Interleave
File size                        : 1.37 GiB
Duration                         : 2h 27mn
Overall bit rate                 : 1 326 Kbps

Video
ID                               : 0
Format                           : MPEG-4 Visual
Format profile                   : Advanced Simple@L5
Format settings, BVOP            : Yes
Format settings, QPel            : No
Format settings, GMC             : No warppoints
Format settings, Matrix          : Default (MPEG)
Muxing mode                      : Packed bitstream
Codec ID                         : XVID
Codec ID/Hint                    : XviD
Duration                         : 2h 27mn
Bit rate                         : 934 Kbps
Width                            : 720 pixels
Height                           : 304 pixels
Display aspect ratio             : 2.35:1
Frame rate                       : 23.976 fps
Color space                      : YUV
Chroma subsampling               : 4:2:0
Bit depth                        : 8 bits
Scan type                        : Progressive
Bits/(Pixel*Frame)               : 0.178
Stream size                      : 986 MiB (70%)
Writing library                  : XviD 64

Audio
ID                               : 1
Format                           : AC-3
Format/Info                      : Audio Coding 3
Mode extension                   : CM (complete main)
Codec ID                         : 2000
Duration                         : 2h 27mn
Bit rate mode                    : Constant
Bit rate                         : 384 Kbps
Channel(s)                       : 6 channels
Channel positions                : Front: L C R, Side: L R, LFE
Sampling rate                    : 48.0 KHz
Bit depth                        : 16 bits
Stream size                      : 405 MiB (29%)
Alignment                        : Aligned on interleaves
Interleave, duration             : 64 ms (1.53 video frames)
Interleave, preload duration     : 192 ms
Title                            : Perfume (2006).mp4_track_1_english


Screenshots:
[img]http://img43.imageshack.us/img43/1064/snap1oq.png[/img]
[img]http://img259.imageshack.us/img259/5668/snap2g.png[/img]
[img]http://img442.imageshack.us/img442/9234/snap3d.png[/img]
[img]http://img5.imageshack.us/img5/7841/snap4ul.png[/img]
[img]http://img191.imageshack.us/img191/1268/snap5k.png[/img]


Note : was no brrip so here we go, did my thing and it turned out nice... 

Source: 720p kingdom thnx

Enjoy!

Respects to CaptainHomey, Cyanide, CM8, Rx, THC, ELEKTRI4KA, 
Killerhz, PA, YeFsTe, Box, MrRep and everyone in the struggle...